<?xml version="1.0" standalone="no"?>
<!DOCTYPE svg PUBLIC "-//W3C//DTD SVG 20010904//EN"
 "http://www.w3.org/TR/2001/REC-SVG-20010904/DTD/svg10.dtd">
<svg version="1.0" xmlns="http://www.w3.org/2000/svg"
 width="900.000000pt" height="900.000000pt" viewBox="0 0 900.000000 900.000000"
 preserveAspectRatio="xMidYMid meet">
<metadata>
Created by potrace 1.14, written by Peter Selinger 2001-2017
</metadata>
<g transform="translate(0.000000,900.000000) scale(0.100000,-0.100000)"
fill="#000000" stroke="none">
<path d="M1338 7058 l-3 -513 -490 0 -490 0 0 -1038 0 -1038 492 0 493 1 5
-23 c2 -12 7 -46 10 -75 3 -30 7 -57 9 -60 2 -4 6 -29 10 -57 3 -27 17 -90 31
-140 14 -49 28 -97 30 -105 30 -118 180 -444 270 -585 56 -88 171 -260 189
-282 8 -10 52 -65 97 -123 46 -58 88 -110 93 -116 6 -6 36 -39 66 -75 71 -83
343 -354 444 -444 43 -39 84 -75 90 -80 32 -31 256 -214 286 -235 19 -13 37
-27 40 -30 17 -21 235 -175 385 -273 142 -93 175 -113 325 -195 150 -82 440
-218 440 -206 0 2 12 -2 28 -10 90 -46 269 -65 368 -39 32 8 66 17 74 19 167
41 630 279 910 468 58 39 110 75 116 81 6 5 37 28 69 50 263 185 569 448 830
715 67 69 140 145 161 170 22 24 53 60 70 80 189 212 402 532 527 790 37 77
124 296 131 327 1 10 6 25 9 33 22 54 74 325 76 397 l1 22 428 0 c235 0 464 0
510 1 l82 0 0 1038 0 1037 -507 0 -508 0 0 513 1 512 -3098 0 -3098 0 -2 -512z"/>
</g>
</svg>
